<?xml version="1.0" encoding="UTF-8"?>
<svg xmlns="http://www.w3.org/2000/svg" xmlns:xlink="http://www.w3.org/1999/xlink" xmlns:svgjs="http://svgjs.com/svgjs" version="1.1" width="512" height="512" x="0" y="0" viewBox="0 0 512.001 512.001" style="enable-background:new 0 0 512 512" xml:space="preserve">
  <g>
    <g xmlns="http://www.w3.org/2000/svg">
      <g>
        <path d="m504.551 12.192c-6.674-8.697-18.918-12.123-29.396-10.449l-25.647 4.093c-90.946 14.514-178.23 59.704-245.771 127.245l-59.218 59.218c-1.981 1.981-3.938 3.982-5.881 5.996-5.148-17.768-21.556-30.8-40.961-30.8h-55.029c-23.516 0-42.648 19.132-42.648 42.648s19.132 42.648 42.648 42.648h50.962c-39.355 55.81-65.851 119.585-76.335 185.277l-4.093 25.647c-3.429 21.489 14.915 39.839 36.41 36.409l25.647-4.093c66.939-10.683 131.881-38.001 188.439-78.601v50.589c0 23.516 19.132 42.648 42.648 42.648s42.648-19.132 42.648-42.648v-55.029c0-19.539-13.211-36.039-31.167-41.066 1.066-1.046 2.142-2.081 3.199-3.138l59.219-59.218c67.54-67.54 112.729-154.822 127.243-245.77l4.093-25.647c1.539-9.622-1.015-18.944-7.01-25.959zm-484.551 197.951c0-12.488 10.16-22.648 22.648-22.648h55.029c8.318 0 15.599 4.511 19.536 11.211h-17.993c-5.522 0-10 4.477-10 10s4.478 10 10 10h19.42c-3.384 8.254-11.503 14.085-20.962 14.085h-55.03c-12.488.001-22.648-10.159-22.648-22.648zm17.025 231.077c12.994-81.417 51.793-159.811 109.837-222.514h48.022c-23.71 25.614-25.257 64.451-4.641 91.793l-157.425 157.425c.786-8.921 2.796-17.859 4.207-26.704zm225.348-242.514h-19.305l12.903-12.903c9.764-9.764 22.746-15.142 36.555-15.142 13.807 0 26.788 5.376 36.552 15.139.001.001.002.002.003.004.001.001.002.002.003.003 20.153 20.157 20.152 52.952-.003 73.107l-14.191 14.191v-22.171c0-5.523-4.478-10-10-10s-10 4.477-10 10v42.171l-10.827 10.827c-9.764 9.764-22.746 15.142-36.555 15.142s-26.791-5.377-36.556-15.142c-.001-.001-.002-.002-.003-.003-20.153-20.157-20.152-52.952.003-73.107l12.115-12.115h39.305c5.522 0 10-4.477 10-10s-4.476-10.001-9.999-10.001zm-190.285 277.576-23.016 3.673 155.305-155.305c12.366 9.352 27.357 14.423 43.132 14.423 17.632 0 34.282-6.336 47.382-17.906v45.005c-62.751 58.193-141.259 97.097-222.803 110.11zm256.889-63.291v55.029c0 12.488-10.16 22.648-22.648 22.648s-22.648-10.16-22.648-22.648v-55.029c0-8.318 4.51-15.598 11.211-19.536v17.994c0 5.523 4.478 10 10 10s10-4.477 10-10v-19.42c8.253 3.384 14.085 11.503 14.085 20.962zm37.108-117.564-51.194 51.194v-45.231l28.334-28.334c25.554-25.554 27.732-65.75 6.567-93.82l28.693-28.693c3.905-3.905 3.905-10.237 0-14.142-3.906-3.905-10.236-3.905-14.143 0l-28.684 28.684c-12.366-9.352-27.356-14.424-43.132-14.424-19.15 0-37.156 7.458-50.697 21l-27.045 27.045h-48.387l51.483-51.483c64.583-64.584 147.963-107.782 234.779-121.636 8.845-1.412 17.782-3.421 26.704-4.208l-51.178 51.179c-3.905 3.905-3.905 10.237 0 14.142 1.953 1.953 4.512 2.929 7.071 2.929s5.118-.977 7.071-2.929l49.065-49.065-3.673 23.014c-13.854 86.817-57.051 170.196-121.634 234.778z" fill="#ffffff" data-original="#000000" style=""/>
        <path d="m411.58 106.868c-3.355-8.054-15.134-8.061-18.471 0-1.634 3.947-.521 8.607 2.71 11.397 3.232 2.791 8.003 3.185 11.666 1.003 4.214-2.509 5.948-7.881 4.095-12.4z" fill="#ffffff" data-original="#000000" style=""/>
      </g>
    </g>
  </g>
</svg>
